<svg xmlns="http://www.w3.org/2000/svg" width="1100" height="550" viewBox="0 0 1100 550" role="img" aria-labelledby="t d"><title id="t">Flight dynamics research</title><desc id="d">Abstract simulation telemetry charts for low-speed flight dynamics research.</desc><rect width="1100" height="550" rx="24" fill="#0b2030"/><g stroke="#366070" opacity=".65"><path d="M85 100V460M200 100V460M315 100V460M430 100V460M545 100V460M660 100V460M775 100V460M890 100V460M1005 100V460"/><path d="M85 100H1005M85 172H1005M85 244H1005M85 316H1005M85 388H1005M85 460H1005"/></g><path d="M85 335C160 300 210 245 270 278S400 399 475 340S570 185 655 230S795 360 860 255S965 190 1005 170" fill="none" stroke="#69e6d8" stroke-width="7" stroke-linecap="round"/><path d="M85 395C210 370 320 420 415 384S550 325 670 355S840 440 1005 400" fill="none" stroke="#ffcb86" stroke-width="4" opacity=".9"/><g fill="#d9eff5" font-family="Arial,Helvetica,sans-serif"><text x="44" y="60" font-size="21" letter-spacing="4">FLIGHT DYNAMICS</text><text x="44" y="516" font-size="18" opacity=".7">Illustrative telemetry curves · not flight-test data</text></g></svg>